# File generated by ImageToStl.com - Free Image and 3D model conversion tools

mtllib Block_Arch.mtl

# Cube053_0
o obj1
v 79.99999905 20 10.00000048
v 69.99999905 20 10.00000048
v 70 20 20
v 80 20 20
v 89.99999905 20 0
v 79.99999886 20 0
v 89.99999905 20 10
v 70 10 20
v 80 10 20
v 69.99999905 10 10.00000048
v 90 20 20
v 79.99999981 1.24E-06 0
v 81.22736311 2.86384869 0
v 81.22736323 2.86384869 9.99999952
v 80 9.5E-07 9.99999952
v 90.00000095 10 20
v 89.99999905 10 10
v 79.99999886 10 0
v 89.99999905 10 0
v 87.13615322 8.77263832 0
v 83.6922574 6.30774355 0
v 80.00000095 -9.5E-07 20
v 81.2273643 2.86384726 20
v 87.1361537 8.77263641 20
v 83.69225836 6.3077426 20
v 87.13615274 8.77263737 9.9999998
v 69.99999905 20 0
v 69.99999905 10 0
v 70.00000095 -9.5E-07 20
v 70 0 10
v 70 2.9E-07 0
v 83.69225764 6.30774307 9.99999961
vn 0 1 0
vn -0 1 0
vn 0 0 1
vn -1 0 0
vn 0 1 0
vn 0.91915 -0.39392 -0
vn 1 0 -0
vn 0 0 -1
vn 0 0 1
vn 0.39392 -0.91915 -0
vn 0.91915 -0.39392 -0
vn -1 0 0
vn 0 -1 -0
vn -1 -0 0
vn 1 0 0
vn 0 -1 -0
vn 0.58201 -0.81318 -0
vn 0.81318 -0.58201 -0
vn 0.58201 -0.81318 -0
vn 0.81318 -0.58201 -0
vn 0.39392 -0.91914 -0
usemtl mat0
f 1//1 2//1 3//1
f 3//1 4//1 1//1
f 5//2 6//2 1//2
f 1//2 7//2 5//2
f 4//3 3//3 8//3
f 8//3 9//3 4//3
f 8//4 3//4 2//4
f 2//4 10//4 8//4
f 7//5 1//5 4//5
f 4//5 11//5 7//5
f 12//6 13//6 14//6
f 14//6 15//6 12//6
f 11//3 4//3 9//3
f 9//3 16//3 11//3
f 11//7 16//7 17//7
f 17//7 7//7 11//7
f 13//8 12//8 18//8
f 18//8 19//8 20//8
f 21//8 13//8 18//8
f 18//8 20//8 21//8
f 9//9 22//9 23//9
f 24//9 16//9 9//9
f 9//9 23//9 25//9
f 25//9 24//9 9//9
f 20//10 19//10 17//10
f 17//10 26//10 20//10
f 23//11 22//11 15//11
f 15//11 14//11 23//11
f 27//12 28//12 10//12
f 10//12 2//12 27//12
f 22//13 29//13 30//13
f 30//13 15//13 22//13
f 9//3 8//3 29//3
f 29//3 22//3 9//3
f 29//14 8//14 10//14
f 10//14 30//14 29//14
f 18//8 28//8 27//8
f 27//8 6//8 18//8
f 19//8 18//8 6//8
f 6//8 5//8 19//8
f 12//8 31//8 28//8
f 28//8 18//8 12//8
f 19//15 5//15 7//15
f 7//15 17//15 19//15
f 6//1 27//1 2//1
f 2//1 1//1 6//1
f 31//16 12//16 15//16
f 15//16 30//16 31//16
f 28//14 31//14 30//14
f 30//14 10//14 28//14
f 25//17 32//17 26//17
f 26//17 24//17 25//17
f 23//18 14//18 32//18
f 32//18 25//18 23//18
f 32//19 21//19 20//19
f 20//19 26//19 32//19
f 14//20 13//20 21//20
f 21//20 32//20 14//20
f 16//21 24//21 26//21
f 26//21 17//21 16//21
# Vertices: 32, normals: 21, texture coordinates: 0, faces: 60

