mtllib Hexagon.mtl
o Cylinder018
usemtl N64
v 120.0000012715658 0 -80
v 120.0000006357829 8 -80
v 137.32050895690918 8 -69.99999904632568
v 120.0000012715658 0 -80
v 137.32050895690918 8 -69.99999904632568
v 137.32050895690918 0 -69.99999904632568
v 137.32050895690918 0 -69.99999904632568
v 137.32050895690918 8 -69.99999904632568
v 137.32050704956055 8 -49.999999046325684
v 137.32050895690918 0 -69.99999904632568
v 137.32050704956055 8 -49.999999046325684
v 137.32050704956055 0 -49.999999046325684
v 137.32050704956055 0 -49.999999046325684
v 137.32050704956055 8 -49.999999046325684
v 119.99999888732737 8 -40
v 137.32050704956055 0 -49.999999046325684
v 119.99999888732737 8 -40
v 119.99999952311026 0 -40
v 119.99999952311026 0 -40
v 119.99999888732737 8 -40
v 102.67949104309082 8 -50.00000190734863
v 119.99999952311026 0 -40
v 102.67949104309082 8 -50.00000190734863
v 102.67949104309082 0 -50.00000190734863
v 131.32050895690918 8 -66.53589820861816
v 120.00000087420148 8 -73.07179641723633
v 108.67949199676514 8 -66.53589725494385
v 131.32050895690918 8 -66.53589820861816
v 108.67949199676514 8 -66.53589725494385
v 108.67949199676514 8 -53.46410369873047
v 131.32050895690918 8 -66.53589820861816
v 108.67949199676514 8 -53.46410369873047
v 119.99999948337376 8 -46.92820358276367
v 131.32050895690918 8 -66.53589820861816
v 119.99999948337376 8 -46.92820358276367
v 131.32050800323486 8 -53.46410131454468
v 102.67949104309082 0 -50.00000190734863
v 102.67949104309082 8 -50.00000190734863
v 102.67949104309082 8 -69.99999809265137
v 102.67949104309082 0 -50.00000190734863
v 102.67949104309082 8 -69.99999809265137
v 102.67949104309082 0 -69.99999809265137
v 102.67949104309082 0 -69.99999809265137
v 102.67949104309082 8 -69.99999809265137
v 120.0000006357829 8 -80
v 102.67949104309082 0 -69.99999809265137
v 120.0000006357829 8 -80
v 120.0000012715658 0 -80
v 120.0000012715658 0 -80
v 137.32050895690918 0 -69.99999904632568
v 137.32050704956055 0 -49.999999046325684
v 120.0000012715658 0 -80
v 137.32050704956055 0 -49.999999046325684
v 119.99999952311026 0 -40
v 120.0000012715658 0 -80
v 119.99999952311026 0 -40
v 102.67949104309082 0 -50.00000190734863
v 120.0000012715658 0 -80
v 102.67949104309082 0 -50.00000190734863
v 102.67949104309082 0 -69.99999809265137
v 120.00000087420148 8 -73.07179641723633
v 131.32050895690918 8 -66.53589820861816
v 137.32050895690918 8 -69.99999904632568
v 120.00000087420148 8 -73.07179641723633
v 137.32050895690918 8 -69.99999904632568
v 120.0000006357829 8 -80
v 131.32050895690918 8 -66.53589820861816
v 131.32050800323486 8 -53.46410131454468
v 137.32050704956055 8 -49.999999046325684
v 131.32050895690918 8 -66.53589820861816
v 137.32050704956055 8 -49.999999046325684
v 137.32050895690918 8 -69.99999904632568
v 131.32050800323486 8 -53.46410131454468
v 119.99999948337376 8 -46.92820358276367
v 119.99999888732737 8 -40
v 131.32050800323486 8 -53.46410131454468
v 119.99999888732737 8 -40
v 137.32050704956055 8 -49.999999046325684
v 119.99999948337376 8 -46.92820358276367
v 108.67949199676514 8 -53.46410369873047
v 102.67949104309082 8 -50.00000190734863
v 119.99999948337376 8 -46.92820358276367
v 102.67949104309082 8 -50.00000190734863
v 119.99999888732737 8 -40
v 108.67949199676514 8 -53.46410369873047
v 108.67949199676514 8 -66.53589725494385
v 102.67949104309082 8 -69.99999809265137
v 108.67949199676514 8 -53.46410369873047
v 102.67949104309082 8 -69.99999809265137
v 102.67949104309082 8 -50.00000190734863
v 108.67949199676514 8 -66.53589725494385
v 120.00000087420148 8 -73.07179641723633
v 120.0000006357829 8 -80
v 108.67949199676514 8 -66.53589725494385
v 120.0000006357829 8 -80
v 102.67949104309082 8 -69.99999809265137
vt 0.2550000548362732 0.2305999994277954
vt 0.2550000548362732 0.019400179386138916
vt 0.4949999749660492 0.019400179386138916
vt 0.2550000548362732 0.2305999994277954
vt 0.4949999749660492 0.019400179386138916
vt 0.4949999749660492 0.2305999994277954
vt 0.4949999451637268 0.2305999994277954
vt 0.4949999451637268 0.019400179386138916
vt 0.2549999952316284 0.01940000057220459
vt 0.4949999451637268 0.2305999994277954
vt 0.2549999952316284 0.01940000057220459
vt 0.2549999952316284 0.2305999994277954
vt 0.49499982595443726 0.2305999994277954
vt 0.49499982595443726 0.01940000057220459
vt 0.2549999952316284 0.01940000057220459
vt 0.49499982595443726 0.2305999994277954
vt 0.2549999952316284 0.01940000057220459
vt 0.2549999952316284 0.2305999994277954
vt 0.4949997365474701 0.23059982061386108
vt 0.4949997365474701 0.01940000057220459
vt 0.2549999952316284 0.019400179386138916
vt 0.4949997365474701 0.23059982061386108
vt 0.2549999952316284 0.019400179386138916
vt 0.2549999952316284 0.2305999994277954
vt 0.02107694000005722 0.4350000023841858
vt 0.125 0.49499988555908203
vt 0.22892294824123383 0.434999942779541
vt 0.02107694000005722 0.4350000023841858
vt 0.22892294824123383 0.434999942779541
vt 0.22892305254936218 0.3149999976158142
vt 0.02107694000005722 0.4350000023841858
vt 0.22892305254936218 0.3149999976158142
vt 0.125 0.25500011444091797
vt 0.02107694000005722 0.4350000023841858
vt 0.125 0.25500011444091797
vt 0.021077051758766174 0.315000057220459
vt 0.2550000548362732 0.2305999994277954
vt 0.2550000548362732 0.01940000057220459
vt 0.4949999749660492 0.019400179386138916
vt 0.2550000548362732 0.2305999994277954
vt 0.4949999749660492 0.019400179386138916
vt 0.4949999749660492 0.2305999994277954
vt 0.25500011444091797 0.2305999994277954
vt 0.25500011444091797 0.019400179386138916
vt 0.4949999749660492 0.019400179386138916
vt 0.25500011444091797 0.2305999994277954
vt 0.4949999749660492 0.019400179386138916
vt 0.4949999749660492 0.2305999994277954
vt 0.75 0.5099999904632568
vt 0.9578461050987244 0.6299999952316284
vt 0.9578461050987244 0.8700000047683716
vt 0.75 0.5099999904632568
vt 0.9578461050987244 0.8700000047683716
vt 0.75 0.989999994635582
vt 0.75 0.5099999904632568
vt 0.75 0.989999994635582
vt 0.5421538949012756 0.8699999749660492
vt 0.75 0.5099999904632568
vt 0.5421538949012756 0.8699999749660492
vt 0.5421538949012756 0.6300000250339508
vt 0.2877660095691681 0.06125003099441528
vt 0.46535903215408325 0.06124997138977051
vt 0.5 0.0012499094009399414
vt 0.2877660095691681 0.06125003099441528
vt 0.5 0.0012499094009399414
vt 0.25312498211860657 0.0012500286102294922
vt 0.2877660393714905 0.06125003099441528
vt 0.46535900235176086 0.06125003099441528
vt 0.5 0.0012500286102294922
vt 0.2877660393714905 0.06125003099441528
vt 0.5 0.0012500286102294922
vt 0.2531249523162842 0.0012500286102294922
vt 0.2877660393714905 0.06125003099441528
vt 0.46535900235176086 0.06125003099441528
vt 0.5 0.0012500286102294922
vt 0.2877660393714905 0.06125003099441528
vt 0.5 0.0012500286102294922
vt 0.25312498211860657 0.0012500286102294922
vt 0.28785502910614014 0.06124997138977051
vt 0.4654479920864105 0.06124997138977051
vt 0.5000889301300049 0.0012500286102294922
vt 0.28785502910614014 0.06124997138977051
vt 0.5000889301300049 0.0012500286102294922
vt 0.2532139718532562 0.0012499094009399414
vt 0.2877660393714905 0.06124997138977051
vt 0.46535900235176086 0.06124997138977051
vt 0.4999999701976776 0.0012500286102294922
vt 0.2877660393714905 0.06124997138977051
vt 0.4999999701976776 0.0012500286102294922
vt 0.25312498211860657 0.0012500286102294922
vt 0.28776606917381287 0.06125003099441528
vt 0.4653589427471161 0.06124997138977051
vt 0.4999999701976776 0.0012500286102294922
vt 0.28776606917381287 0.06125003099441528
vt 0.4999999701976776 0.0012500286102294922
vt 0.25312501192092896 0.0012500286102294922
vn 0.5000000514340596 -1.9073486300659037e-7 -0.8660253740889475
vn 0.5000000514340596 -1.9073486300659037e-7 -0.8660253740889475
vn 0.5000000514340596 -1.9073486300659037e-7 -0.8660253740889475
vn 0.5000000514340596 -1.9073486300659037e-7 -0.8660253740889475
vn 0.5000000514340596 -1.9073486300659037e-7 -0.8660253740889475
vn 0.5000000514340596 -1.9073486300659037e-7 -0.8660253740889475
vn 0.9999999999999956 0 9.536743306171005e-8
vn 0.9999999999999956 0 9.536743306171005e-8
vn 0.9999999999999956 0 9.536743306171005e-8
vn 0.9999999999999956 0 9.536743306171005e-8
vn 0.9999999999999956 0 9.536743306171005e-8
vn 0.9999999999999956 0 9.536743306171005e-8
vn 0.49999998437884147 -1.1126200721007393e-7 0.8660254128033115
vn 0.49999998437884147 -1.1126200721007393e-7 0.8660254128033115
vn 0.49999998437884147 -1.1126200721007393e-7 0.8660254128033115
vn 0.49999998437884147 -1.1126200721007393e-7 0.8660254128033115
vn 0.49999998437884147 -1.1126200721007393e-7 0.8660254128033115
vn 0.49999998437884147 -1.1126200721007393e-7 0.8660254128033115
vn -0.5000000514340596 1.907348487957359e-7 0.8660253740889475
vn -0.5000000514340596 1.907348487957359e-7 0.8660253740889475
vn -0.5000000514340596 1.907348487957359e-7 0.8660253740889475
vn -0.5000000514340596 1.907348487957359e-7 0.8660253740889475
vn -0.5000000514340596 1.907348487957359e-7 0.8660253740889475
vn -0.5000000514340596 1.907348487957359e-7 0.8660253740889475
vn 8.592858868894382e-9 1 0
vn 8.592858868894382e-9 1 0
vn 8.592858868894382e-9 1 0
vn 8.592858868894382e-9 1 0
vn 8.592858868894382e-9 1 0
vn 8.592858868894382e-9 1 0
vn 8.592858868894382e-9 1 0
vn 8.592858868894382e-9 1 0
vn 8.592858868894382e-9 1 0
vn 8.592858868894382e-9 1 0
vn 8.592858868894382e-9 1 0
vn 8.592858868894382e-9 1 0
vn -1 0 0
vn -1 0 0
vn -1 0 0
vn -1 0 0
vn -1 0 0
vn -1 0 0
vn -0.5000000067305838 1.1126197713043098e-7 -0.866025399898527
vn -0.5000000067305838 1.1126197713043098e-7 -0.866025399898527
vn -0.5000000067305838 1.1126197713043098e-7 -0.866025399898527
vn -0.5000000067305838 1.1126197713043098e-7 -0.866025399898527
vn -0.5000000067305838 1.1126197713043098e-7 -0.866025399898527
vn -0.5000000067305838 1.1126197713043098e-7 -0.866025399898527
vn 0 -1 0
vn 0 -1 0
vn 0 -1 0
vn 0 -1 0
vn 0 -1 0
vn 0 -1 0
vn 0 -1 0
vn 0 -1 0
vn 0 -1 0
vn 0 -1 0
vn 0 -1 0
vn 0 -1 0
vn 0 1 0
vn 0 1 0
vn 0 1 0
vn 0 1 0
vn 0 1 0
vn 0 1 0
vn -1.5379460194253445e-7 0.9999999999999882 0
vn -1.5379460194253445e-7 0.9999999999999882 0
vn -1.5379460194253445e-7 0.9999999999999882 0
vn -1.5379460194253445e-7 0.9999999999999882 0
vn -1.5379460194253445e-7 0.9999999999999882 0
vn -1.5379460194253445e-7 0.9999999999999882 0
vn 0 1 0
vn 0 1 0
vn 0 1 0
vn 0 1 0
vn 0 1 0
vn 0 1 0
vn 0 1 0
vn 0 1 0
vn 0 1 0
vn 0 1 0
vn 0 1 0
vn 0 1 0
vn 0 1 0
vn 0 1 0
vn 0 1 0
vn 0 1 0
vn 0 1 0
vn 0 1 0
vn 0 1 0
vn 0 1 0
vn 0 1 0
vn 0 1 0
vn 0 1 0
vn 0 1 0
f 1/1/1 2/2/2 3/3/3
f 4/4/4 5/5/5 6/6/6
f 7/7/7 8/8/8 9/9/9
f 10/10/10 11/11/11 12/12/12
f 13/13/13 14/14/14 15/15/15
f 16/16/16 17/17/17 18/18/18
f 19/19/19 20/20/20 21/21/21
f 22/22/22 23/23/23 24/24/24
f 25/25/25 26/26/26 27/27/27
f 28/28/28 29/29/29 30/30/30
f 31/31/31 32/32/32 33/33/33
f 34/34/34 35/35/35 36/36/36
f 37/37/37 38/38/38 39/39/39
f 40/40/40 41/41/41 42/42/42
f 43/43/43 44/44/44 45/45/45
f 46/46/46 47/47/47 48/48/48
f 49/49/49 50/50/50 51/51/51
f 52/52/52 53/53/53 54/54/54
f 55/55/55 56/56/56 57/57/57
f 58/58/58 59/59/59 60/60/60
f 61/61/61 62/62/62 63/63/63
f 64/64/64 65/65/65 66/66/66
f 67/67/67 68/68/68 69/69/69
f 70/70/70 71/71/71 72/72/72
f 73/73/73 74/74/74 75/75/75
f 76/76/76 77/77/77 78/78/78
f 79/79/79 80/80/80 81/81/81
f 82/82/82 83/83/83 84/84/84
f 85/85/85 86/86/86 87/87/87
f 88/88/88 89/89/89 90/90/90
f 91/91/91 92/92/92 93/93/93
f 94/94/94 95/95/95 96/96/96
