mtllib Wall_Narrowing.mtl
o Cube055
usemtl N64
v 80 20 45.00000047683716
v 90 20 45
v 89.99999904632568 20 40.00000047683716
v 80 20 45.00000047683716
v 89.99999904632568 20 40.00000047683716
v 80 20 40.00000047683716
v 80 20 40.00000047683716
v 89.99999904632568 20 40.00000047683716
v 89.99999904632568 10 40
v 80 20 40.00000047683716
v 89.99999904632568 10 40
v 80 10 40.00000047683716
v 80 10 47.50000047683716
v 90 10 47.5
v 90 20 45
v 80 10 47.50000047683716
v 90 20 45
v 80 20 45.00000047683716
v 80 20 40.00000047683716
v 80 10 40.00000047683716
v 80 10 47.50000047683716
v 80 20 40.00000047683716
v 80 10 47.50000047683716
v 80 20 45.00000047683716
v 90 20 45
v 100 20 45
v 99.99999904632568 20 40
v 90 20 45
v 99.99999904632568 20 40
v 89.99999904632568 20 40.00000047683716
v 89.99999904632568 20 40.00000047683716
v 99.99999904632568 20 40
v 99.99999904632568 10 40
v 89.99999904632568 20 40.00000047683716
v 99.99999904632568 10 40
v 89.99999904632568 10 40
v 90 10 47.5
v 100.00000095367432 10 47.49999952316284
v 100 20 45
v 90 10 47.5
v 100 20 45
v 90 20 45
v 99.99999904632568 10 40
v 99.99999904632568 20 40
v 100 20 45
v 99.99999904632568 10 40
v 100 20 45
v 100.00000095367432 10 47.49999952316284
v 89.99999904632568 10 40
v 99.99999904632568 10 40
v 100 9.5367431640625e-7 39.99999952316284
v 89.99999904632568 10 40
v 100 9.5367431640625e-7 39.99999952316284
v 90 9.5367431640625e-7 39.99999952316284
v 90 9.5367431640625e-7 39.99999952316284
v 100 9.5367431640625e-7 39.99999952316284
v 100.00000095367432 0 49.99999952316284
v 90 9.5367431640625e-7 39.99999952316284
v 100.00000095367432 0 49.99999952316284
v 90.00000095367432 -9.5367431640625e-7 50
v 90.00000095367432 -9.5367431640625e-7 50
v 100.00000095367432 0 49.99999952316284
v 100.00000095367432 10 47.49999952316284
v 90.00000095367432 -9.5367431640625e-7 50
v 100.00000095367432 10 47.49999952316284
v 90 10 47.5
v 100 9.5367431640625e-7 39.99999952316284
v 99.99999904632568 10 40
v 100.00000095367432 10 47.49999952316284
v 100 9.5367431640625e-7 39.99999952316284
v 100.00000095367432 10 47.49999952316284
v 100.00000095367432 0 49.99999952316284
v 80 10 40.00000047683716
v 89.99999904632568 10 40
v 90 9.5367431640625e-7 39.99999952316284
v 80 10 40.00000047683716
v 90 9.5367431640625e-7 39.99999952316284
v 80 0 40
v 80 0 40
v 90 9.5367431640625e-7 39.99999952316284
v 90.00000095367432 -9.5367431640625e-7 50
v 80 0 40
v 90.00000095367432 -9.5367431640625e-7 50
v 80 -9.5367431640625e-7 50
v 80 -9.5367431640625e-7 50
v 90.00000095367432 -9.5367431640625e-7 50
v 90 10 47.5
v 80 -9.5367431640625e-7 50
v 90 10 47.5
v 80 10 47.50000047683716
v 80 10 40.00000047683716
v 80 0 40
v 80 -9.5367431640625e-7 50
v 80 10 40.00000047683716
v 80 -9.5367431640625e-7 50
v 80 10 47.50000047683716
vt 0 0.5
vt 0.25 0.5
vt 0.25 0.625
vt 0 0.5
vt 0.25 0.625
vt 0 0.625
vt 0.4987499713897705 0.7487499713897705
vt 0.2512499988079071 0.7487499713897705
vt 0.2512500286102295 0.5012500286102295
vt 0.4987499713897705 0.7487499713897705
vt 0.2512500286102295 0.5012500286102295
vt 0.4987500011920929 0.5012500286102295
vt 0.2512499988079071 0.5012500286102295
vt 0.4987500011920929 0.5012500286102295
vt 0.4987500011920929 0.7487499713897705
vt 0.2512499988079071 0.5012500286102295
vt 0.4987500011920929 0.7487499713897705
vt 0.2512499988079071 0.7487499713897705
vt 0.3125 0.7500000596046448
vt 0.3125 0.5
vt 0.46875 0.5
vt 0.3125 0.7500000596046448
vt 0.46875 0.5
vt 0.4375 0.75
vt 0 0.5
vt 0.25 0.5
vt 0.25 0.625
vt 0 0.5
vt 0.25 0.625
vt 0 0.625
vt 0.4987499713897705 0.7487499713897705
vt 0.2512499988079071 0.7487499713897705
vt 0.2512500286102295 0.5012500286102295
vt 0.4987499713897705 0.7487499713897705
vt 0.2512500286102295 0.5012500286102295
vt 0.4987500011920929 0.5012500286102295
vt 0.2512499988079071 0.5012500286102295
vt 0.4987500011920929 0.5012500286102295
vt 0.4987500011920929 0.7487499713897705
vt 0.2512499988079071 0.5012500286102295
vt 0.4987500011920929 0.7487499713897705
vt 0.2512499988079071 0.7487499713897705
vt 0.4375 0.4999999403953552
vt 0.4375 0.75
vt 0.3125 0.75
vt 0.4375 0.4999999403953552
vt 0.3125 0.75
vt 0.28125 0.5
vt 0.4987499713897705 0.7487499713897705
vt 0.2512499988079071 0.7487499713897705
vt 0.2512500286102295 0.5012500286102295
vt 0.4987499713897705 0.7487499713897705
vt 0.2512500286102295 0.5012500286102295
vt 0.4987500011920929 0.5012500286102295
vt 0.25 0.9437500238418579
vt 0.5 0.9437500238418579
vt 0.5 0.9937499761581421
vt 0.25 0.9437500238418579
vt 0.5 0.9937499761581421
vt 0.25 0.9937499761581421
vt 0.2512499988079071 0.5012500286102295
vt 0.4987500011920929 0.5012500286102295
vt 0.4987500011920929 0.7487499713897705
vt 0.2512499988079071 0.5012500286102295
vt 0.4987500011920929 0.7487499713897705
vt 0.2512499988079071 0.7487499713897705
vt 0.4375 0.4999999403953552
vt 0.4375 0.75
vt 0.3125 0.75
vt 0.4375 0.4999999403953552
vt 0.3125 0.75
vt 0.25 0.5
vt 0.4987499713897705 0.7487499713897705
vt 0.2512499988079071 0.7487499713897705
vt 0.2512500286102295 0.5012500286102295
vt 0.4987499713897705 0.7487499713897705
vt 0.2512500286102295 0.5012500286102295
vt 0.4987500011920929 0.5012500286102295
vt 0.25 0.9437500238418579
vt 0.5 0.9437500238418579
vt 0.5 0.9937499761581421
vt 0.25 0.9437500238418579
vt 0.5 0.9937499761581421
vt 0.25 0.9937499761581421
vt 0.2512499988079071 0.5012500286102295
vt 0.4987500011920929 0.5012500286102295
vt 0.4987500011920929 0.7487499713897705
vt 0.2512499988079071 0.5012500286102295
vt 0.4987500011920929 0.7487499713897705
vt 0.2512499988079071 0.7487499713897705
vt 0.3125 0.7500000596046448
vt 0.3125 0.5
vt 0.5 0.5
vt 0.3125 0.7500000596046448
vt 0.5 0.5
vt 0.4375 0.75
vn 0 1 0
vn 0 1 0
vn 0 1 0
vn 0 1 0
vn 0 1 0
vn 0 1 0
vn -2.3841860041784437e-8 3.814697535631236e-8 -0.9999999999999991
vn -2.3841860041784437e-8 3.814697535631236e-8 -0.9999999999999991
vn -2.3841860041784437e-8 3.814697535631236e-8 -0.9999999999999991
vn -2.3841860041784437e-8 3.814697535631236e-8 -0.9999999999999991
vn -2.3841860041784437e-8 3.814697535631236e-8 -0.9999999999999991
vn -2.3841860041784437e-8 3.814697535631236e-8 -0.9999999999999991
vn 5.551200141230155e-8 0.2425356250363326 0.9701425001453304
vn 5.551200141230155e-8 0.2425356250363326 0.9701425001453304
vn 5.551200141230155e-8 0.2425356250363326 0.9701425001453304
vn 5.551200141230155e-8 0.2425356250363326 0.9701425001453304
vn 5.551200141230155e-8 0.2425356250363326 0.9701425001453304
vn 5.551200141230155e-8 0.2425356250363326 0.9701425001453304
vn -1 0 0
vn -1 0 0
vn -1 0 0
vn -1 0 0
vn -1 0 0
vn -1 0 0
vn 3.814697180359869e-8 0.9999999999999993 0
vn 3.814697180359869e-8 0.9999999999999993 0
vn 3.814697180359869e-8 0.9999999999999993 0
vn 3.814697180359869e-8 0.9999999999999993 0
vn 3.814697180359869e-8 0.9999999999999993 0
vn 3.814697180359869e-8 0.9999999999999993 0
vn -2.3841856489070772e-8 0 -0.9999999999999998
vn -2.3841856489070772e-8 0 -0.9999999999999998
vn -2.3841856489070772e-8 0 -0.9999999999999998
vn -2.3841856489070772e-8 0 -0.9999999999999998
vn -2.3841856489070772e-8 0 -0.9999999999999998
vn -2.3841856489070772e-8 0 -0.9999999999999998
vn 3.700799870680793e-8 0.24253561101171106 0.9701425036514866
vn 3.700799870680793e-8 0.24253561101171106 0.9701425036514866
vn 3.700799870680793e-8 0.24253561101171106 0.9701425036514866
vn 3.700799870680793e-8 0.24253561101171106 0.9701425036514866
vn 3.700799870680793e-8 0.24253561101171106 0.9701425036514866
vn 3.700799870680793e-8 0.24253561101171106 0.9701425036514866
vn 0.9999999999999925 1.907349123086973e-8 -1.220703182980278e-7
vn 0.9999999999999925 1.907349123086973e-8 -1.220703182980278e-7
vn 0.9999999999999925 1.907349123086973e-8 -1.220703182980278e-7
vn 0.9999999999999925 1.907349123086973e-8 -1.220703182980278e-7
vn 0.9999999999999925 1.907349123086973e-8 -1.220703182980278e-7
vn 0.9999999999999925 1.907349123086973e-8 -1.220703182980278e-7
vn 0 3.814697180359869e-8 -0.9999999999999993
vn 0 3.814697180359869e-8 -0.9999999999999993
vn 0 3.814697180359869e-8 -0.9999999999999993
vn 0 3.814697180359869e-8 -0.9999999999999993
vn 0 3.814697180359869e-8 -0.9999999999999993
vn 0 3.814697180359869e-8 -0.9999999999999993
vn 4.7683712978141014e-8 -0.9999999999999887 -1.4305113893442306e-7
vn 4.7683712978141014e-8 -0.9999999999999887 -1.4305113893442306e-7
vn 4.7683712978141014e-8 -0.9999999999999887 -1.4305113893442306e-7
vn 4.7683712978141014e-8 -0.9999999999999887 -1.4305113893442306e-7
vn 4.7683712978141014e-8 -0.9999999999999887 -1.4305113893442306e-7
vn 4.7683712978141014e-8 -0.9999999999999887 -1.4305113893442306e-7
vn 3.700799603182385e-8 0.24253565308557415 0.9701424931330205
vn 3.700799603182385e-8 0.24253565308557415 0.9701424931330205
vn 3.700799603182385e-8 0.24253565308557415 0.9701424931330205
vn 3.700799603182385e-8 0.24253565308557415 0.9701424931330205
vn 3.700799603182385e-8 0.24253565308557415 0.9701424931330205
vn 3.700799603182385e-8 0.24253565308557415 0.9701424931330205
vn 0.999999999999996 2.724783954022303e-8 -8.71930865287137e-8
vn 0.999999999999996 2.724783954022303e-8 -8.71930865287137e-8
vn 0.999999999999996 2.724783954022303e-8 -8.71930865287137e-8
vn 0.999999999999996 2.724783954022303e-8 -8.71930865287137e-8
vn 0.999999999999996 2.724783954022303e-8 -8.71930865287137e-8
vn 0.999999999999996 2.724783954022303e-8 -8.71930865287137e-8
vn -4.768372363628254e-8 0 -0.9999999999999989
vn -4.768372363628254e-8 0 -0.9999999999999989
vn -4.768372363628254e-8 0 -0.9999999999999989
vn -4.768372363628254e-8 0 -0.9999999999999989
vn -4.768372363628254e-8 0 -0.9999999999999989
vn -4.768372363628254e-8 0 -0.9999999999999989
vn 4.7683712978141014e-8 -0.9999999999999887 -1.4305115314527777e-7
vn 4.7683712978141014e-8 -0.9999999999999887 -1.4305115314527777e-7
vn 4.7683712978141014e-8 -0.9999999999999887 -1.4305115314527777e-7
vn 4.7683712978141014e-8 -0.9999999999999887 -1.4305115314527777e-7
vn 4.7683712978141014e-8 -0.9999999999999887 -1.4305115314527777e-7
vn 4.7683712978141014e-8 -0.9999999999999887 -1.4305115314527777e-7
vn 1.8503996640802825e-8 0.24253556893784844 0.9701425141699511
vn 1.8503996640802825e-8 0.24253556893784844 0.9701425141699511
vn 1.8503996640802825e-8 0.24253556893784844 0.9701425141699511
vn 1.8503996640802825e-8 0.24253556893784844 0.9701425141699511
vn 1.8503996640802825e-8 0.24253556893784844 0.9701425141699511
vn 1.8503996640802825e-8 0.24253556893784844 0.9701425141699511
vn -1 0 0
vn -1 0 0
vn -1 0 0
vn -1 0 0
vn -1 0 0
vn -1 0 0
f 1/1/1 2/2/2 3/3/3
f 4/4/4 5/5/5 6/6/6
f 7/7/7 8/8/8 9/9/9
f 10/10/10 11/11/11 12/12/12
f 13/13/13 14/14/14 15/15/15
f 16/16/16 17/17/17 18/18/18
f 19/19/19 20/20/20 21/21/21
f 22/22/22 23/23/23 24/24/24
f 25/25/25 26/26/26 27/27/27
f 28/28/28 29/29/29 30/30/30
f 31/31/31 32/32/32 33/33/33
f 34/34/34 35/35/35 36/36/36
f 37/37/37 38/38/38 39/39/39
f 40/40/40 41/41/41 42/42/42
f 43/43/43 44/44/44 45/45/45
f 46/46/46 47/47/47 48/48/48
f 49/49/49 50/50/50 51/51/51
f 52/52/52 53/53/53 54/54/54
f 55/55/55 56/56/56 57/57/57
f 58/58/58 59/59/59 60/60/60
f 61/61/61 62/62/62 63/63/63
f 64/64/64 65/65/65 66/66/66
f 67/67/67 68/68/68 69/69/69
f 70/70/70 71/71/71 72/72/72
f 73/73/73 74/74/74 75/75/75
f 76/76/76 77/77/77 78/78/78
f 79/79/79 80/80/80 81/81/81
f 82/82/82 83/83/83 84/84/84
f 85/85/85 86/86/86 87/87/87
f 88/88/88 89/89/89 90/90/90
f 91/91/91 92/92/92 93/93/93
f 94/94/94 95/95/95 96/96/96
