<?xml version="1.0" encoding="UTF-8"?>
<svg version="1.1" xmlns="http://www.w3.org/2000/svg" width="64" height="64">
<path d="M0 0 C0.66 0 1.32 0 2 0 C2 0.66 2 1.32 2 2 C2.66 2 3.32 2 4 2 C4 2.66 4 3.32 4 4 C3.34 4 2.68 4 2 4 C2 5.98 2 7.96 2 10 C2.66 10 3.32 10 4 10 C4 10.66 4 11.32 4 12 C5.98 12 7.96 12 10 12 C10 11.34 10 10.68 10 10 C11.32 10 12.64 10 14 10 C14 9.34 14 8.68 14 8 C14.66 8 15.32 8 16 8 C16 9.32 16 10.64 16 12 C15.34 12 14.68 12 14 12 C14 12.66 14 13.32 14 14 C13.34 14 12.68 14 12 14 C12 14.66 12 15.32 12 16 C11.34 16 10.68 16 10 16 C10 15.34 10 14.68 10 14 C9.34 14 8.68 14 8 14 C8 14.66 8 15.32 8 16 C6.68 16 5.36 16 4 16 C4 16.66 4 17.32 4 18 C2.68 18 1.36 18 0 18 C0 18.66 0 19.32 0 20 C0.66 20 1.32 20 2 20 C2 20.66 2 21.32 2 22 C2.66 22 3.32 22 4 22 C4 22.66 4 23.32 4 24 C2.68 24 1.36 24 0 24 C0 23.34 0 22.68 0 22 C-0.66 22 -1.32 22 -2 22 C-2 22.66 -2 23.32 -2 24 C-2.66 24 -3.32 24 -4 24 C-4 24.66 -4 25.32 -4 26 C-4.66 26 -5.32 26 -6 26 C-6 27.32 -6 28.64 -6 30 C-7.32 30 -8.64 30 -10 30 C-10 30.66 -10 31.32 -10 32 C-10.66 32 -11.32 32 -12 32 C-12 33.32 -12 34.64 -12 36 C-12.66 36 -13.32 36 -14 36 C-14 37.32 -14 38.64 -14 40 C-14.66 40 -15.32 40 -16 40 C-16 40.66 -16 41.32 -16 42 C-17.32 42 -18.64 42 -20 42 C-20 41.34 -20 40.68 -20 40 C-19.34 40 -18.68 40 -18 40 C-18 38.02 -18 36.04 -18 34 C-17.34 34 -16.68 34 -16 34 C-16 32.68 -16 31.36 -16 30 C-15.34 30 -14.68 30 -14 30 C-14 28.68 -14 27.36 -14 26 C-13.34 26 -12.68 26 -12 26 C-12 24.68 -12 23.36 -12 22 C-11.34 22 -10.68 22 -10 22 C-10 21.34 -10 20.68 -10 20 C-9.34 20 -8.68 20 -8 20 C-8 21.32 -8 22.64 -8 24 C-7.34 24 -6.68 24 -6 24 C-6 23.34 -6 22.68 -6 22 C-5.34 22 -4.68 22 -4 22 C-4 20.68 -4 19.36 -4 18 C-3.34 18 -2.68 18 -2 18 C-2 17.34 -2 16.68 -2 16 C-1.34 16 -0.68 16 0 16 C0 15.34 0 14.68 0 14 C-0.66 14 -1.32 14 -2 14 C-2 13.34 -2 12.68 -2 12 C-2.66 12 -3.32 12 -4 12 C-4 10.02 -4 8.04 -4 6 C-3.34 6 -2.68 6 -2 6 C-2 4.68 -2 3.36 -2 2 C-1.34 2 -0.68 2 0 2 C0 1.34 0 0.68 0 0 Z " fill="#FFFFFF" transform="translate(28,8)"/>
<path d="M0 0 C2.64 0 5.28 0 8 0 C8 0.66 8 1.32 8 2 C8.66 2 9.32 2 10 2 C10 1.34 10 0.68 10 0 C11.32 0 12.64 0 14 0 C14 0.66 14 1.32 14 2 C15.32 2 16.64 2 18 2 C18 1.34 18 0.68 18 0 C19.32 0 20.64 0 22 0 C22 0.66 22 1.32 22 2 C21.34 2 20.68 2 20 2 C20 2.66 20 3.32 20 4 C20.66 4 21.32 4 22 4 C22 5.98 22 7.96 22 10 C22.66 10 23.32 10 24 10 C24 13.3 24 16.6 24 20 C22.68 20 21.36 20 20 20 C20 19.34 20 18.68 20 18 C20.66 18 21.32 18 22 18 C22 16.02 22 14.04 22 12 C21.34 12 20.68 12 20 12 C20 11.34 20 10.68 20 10 C19.34 10 18.68 10 18 10 C18 8.02 18 6.04 18 4 C17.34 4 16.68 4 16 4 C16 4.66 16 5.32 16 6 C15.34 6 14.68 6 14 6 C14 6.66 14 7.32 14 8 C13.34 8 12.68 8 12 8 C12 6.68 12 5.36 12 4 C10.02 4 8.04 4 6 4 C6 3.34 6 2.68 6 2 C4.02 2 2.04 2 0 2 C0 1.34 0 0.68 0 0 Z " fill="#FFFFFF" transform="translate(32,8)"/>
<path d="M0 0 C0.66 0 1.32 0 2 0 C2 1.32 2 2.64 2 4 C1.34 4 0.68 4 0 4 C0 4.66 0 5.32 0 6 C-0.66 6 -1.32 6 -2 6 C-2 7.32 -2 8.64 -2 10 C-2.66 10 -3.32 10 -4 10 C-4 10.66 -4 11.32 -4 12 C-4.66 12 -5.32 12 -6 12 C-6 12.66 -6 13.32 -6 14 C-7.98 14 -9.96 14 -12 14 C-12 15.32 -12 16.64 -12 18 C-13.32 18 -14.64 18 -16 18 C-16 17.34 -16 16.68 -16 16 C-15.34 16 -14.68 16 -14 16 C-14 14.02 -14 12.04 -14 10 C-13.34 10 -12.68 10 -12 10 C-12 9.34 -12 8.68 -12 8 C-11.34 8 -10.68 8 -10 8 C-10 7.34 -10 6.68 -10 6 C-9.34 6 -8.68 6 -8 6 C-8 6.66 -8 7.32 -8 8 C-7.34 8 -6.68 8 -6 8 C-6 7.34 -6 6.68 -6 6 C-5.34 6 -4.68 6 -4 6 C-4 5.34 -4 4.68 -4 4 C-3.34 4 -2.68 4 -2 4 C-2 3.34 -2 2.68 -2 2 C-1.34 2 -0.68 2 0 2 C0 1.34 0 0.68 0 0 Z " fill="#FFFFFF" transform="translate(42,38)"/>
<path d="M0 0 C0.66 0 1.32 0 2 0 C2 0.66 2 1.32 2 2 C2.66 2 3.32 2 4 2 C4 2.66 4 3.32 4 4 C5.98 4 7.96 4 10 4 C10 4.66 10 5.32 10 6 C6.7 6 3.4 6 0 6 C0 6.66 0 7.32 0 8 C-0.66 8 -1.32 8 -2 8 C-2 9.32 -2 10.64 -2 12 C-2.66 12 -3.32 12 -4 12 C-4 13.32 -4 14.64 -4 16 C-4.66 16 -5.32 16 -6 16 C-6 14.02 -6 12.04 -6 10 C-7.32 10 -8.64 10 -10 10 C-10 9.34 -10 8.68 -10 8 C-8.02 8 -6.04 8 -4 8 C-4 7.34 -4 6.68 -4 6 C-3.34 6 -2.68 6 -2 6 C-2 4.68 -2 3.36 -2 2 C-1.34 2 -0.68 2 0 2 C0 1.34 0 0.68 0 0 Z " fill="#FFFFFF" transform="translate(42,24)"/>
<path d="M0 0 C0.66 0 1.32 0 2 0 C2 1.32 2 2.64 2 4 C1.34 4 0.68 4 0 4 C0 4.66 0 5.32 0 6 C-0.66 6 -1.32 6 -2 6 C-2 6.66 -2 7.32 -2 8 C-3.98 8 -5.96 8 -8 8 C-8 7.34 -8 6.68 -8 6 C-6.68 6 -5.36 6 -4 6 C-4 5.34 -4 4.68 -4 4 C-3.34 4 -2.68 4 -2 4 C-2 3.34 -2 2.68 -2 2 C-1.34 2 -0.68 2 0 2 C0 1.34 0 0.68 0 0 Z " fill="#FFFFFF" transform="translate(16,48)"/>
<path d="M0 0 C0.66 0 1.32 0 2 0 C2 1.32 2 2.64 2 4 C0.68 4 -0.64 4 -2 4 C-2 3.34 -2 2.68 -2 2 C-1.34 2 -0.68 2 0 2 C0 1.34 0 0.68 0 0 Z " fill="#FFFFFF" transform="translate(20,52)"/>
<path d="M0 0 C1.32 0 2.64 0 4 0 C4 1.32 4 2.64 4 4 C3.34 4 2.68 4 2 4 C2 3.34 2 2.68 2 2 C1.34 2 0.68 2 0 2 C0 1.34 0 0.68 0 0 Z " fill="#FFFFFF" transform="translate(30,36)"/>
<path d="M0 0 C0.66 0 1.32 0 2 0 C2 1.32 2 2.64 2 4 C1.34 4 0.68 4 0 4 C0 2.68 0 1.36 0 0 Z " fill="#FFFFFF" transform="translate(34,40)"/>
<path d="M0 0 C0.66 0 1.32 0 2 0 C2 1.32 2 2.64 2 4 C1.34 4 0.68 4 0 4 C0 2.68 0 1.36 0 0 Z " fill="#FFFFFF" transform="translate(20,24)"/>
<path d="M0 0 C0.66 0 1.32 0 2 0 C2 0.66 2 1.32 2 2 C1.34 2 0.68 2 0 2 C0 1.34 0 0.68 0 0 Z " fill="#FFFFFF" transform="translate(32,54)"/>
<path d="M0 0 C0.66 0 1.32 0 2 0 C2 0.66 2 1.32 2 2 C1.34 2 0.68 2 0 2 C0 1.34 0 0.68 0 0 Z " fill="#FFFFFF" transform="translate(44,36)"/>
<path d="M0 0 C0.66 0 1.32 0 2 0 C2 0.66 2 1.32 2 2 C1.34 2 0.68 2 0 2 C0 1.34 0 0.68 0 0 Z " fill="#FFFFFF" transform="translate(28,34)"/>
<path d="M0 0 C0.66 0 1.32 0 2 0 C2 0.66 2 1.32 2 2 C1.34 2 0.68 2 0 2 C0 1.34 0 0.68 0 0 Z " fill="#FFFFFF" transform="translate(26,32)"/>
<path d="M0 0 C0.66 0 1.32 0 2 0 C2 0.66 2 1.32 2 2 C1.34 2 0.68 2 0 2 C0 1.34 0 0.68 0 0 Z " fill="#FFFFFF" transform="translate(48,20)"/>
<path d="M0 0 C0.66 0 1.32 0 2 0 C2 0.66 2 1.32 2 2 C1.34 2 0.68 2 0 2 C0 1.34 0 0.68 0 0 Z " fill="#FFFFFF" transform="translate(36,14)"/>
</svg>
